<svg xmlns="http://www.w3.org/2000/svg" xmlns:xlink="http://www.w3.org/1999/xlink" width="40" height="50" viewBox="0 0 40 50">
  <defs>
    <clipPath id="clip-path">
      <path id="Path_9" data-name="Path 9" d="M32.5-29.167H11.667a.833.833,0,0,0-.833.833.833.833,0,0,0,.833.833H32.5a.833.833,0,0,0,.833-.833A.833.833,0,0,0,32.5-29.167Z" fill="none"/>
    </clipPath>
    <clipPath id="clip-path-2">
      <path id="Path_8" data-name="Path 8" d="M-190,1496H1250V-2959H-190Z" fill="none"/>
    </clipPath>
    <clipPath id="clip-path-3">
      <path id="Path_12" data-name="Path 12" d="M11.667-34.167H20A.833.833,0,0,0,20.833-35,.833.833,0,0,0,20-35.833H11.667a.833.833,0,0,0-.833.833A.833.833,0,0,0,11.667-34.167Z" fill="none"/>
    </clipPath>
    <clipPath id="clip-path-5">
      <path id="Path_15" data-name="Path 15" d="M32.5-22.5H11.667a.833.833,0,0,0-.833.833.833.833,0,0,0,.833.833H32.5a.833.833,0,0,0,.833-.833A.833.833,0,0,0,32.5-22.5Z" fill="none"/>
    </clipPath>
    <clipPath id="clip-path-7">
      <path id="Path_18" data-name="Path 18" d="M32.5-15.833H11.667a.833.833,0,0,0-.833.833.833.833,0,0,0,.833.833H32.5A.833.833,0,0,0,33.333-15,.833.833,0,0,0,32.5-15.833Z" fill="none"/>
    </clipPath>
    <clipPath id="clip-path-9">
      <path id="Path_21" data-name="Path 21" d="M32.5-9.167H11.667a.833.833,0,0,0-.833.833.833.833,0,0,0,.833.833H32.5a.833.833,0,0,0,.833-.833A.833.833,0,0,0,32.5-9.167Z" fill="none"/>
    </clipPath>
    <clipPath id="clip-path-11">
      <path id="Path_24" data-name="Path 24" d="M35.833-37.845V-50H0V-4.167H4.167V0H40V-33.678Zm-7.5-5.143,7.5,7.5,1.322,1.322H28.333ZM1.667-5.833v-42.5h32.5v8.822l-6.322-6.322H4.167v40ZM5.833-1.667v-42.5H26.667V-32.5H38.333V-1.667Z" fill="none"/>
    </clipPath>
  </defs>
  <g id="documents_icon" data-name="documents icon" transform="translate(0 50)">
    <g id="Group_8" data-name="Group 8" clip-path="url(#clip-path)">
      <g id="Group_7" data-name="Group 7" clip-path="url(#clip-path-2)">
        <path id="Path_7" data-name="Path 7" d="M5.833-34.167h32.5V-22.5H5.833Z" fill="#ec1b24"/>
      </g>
    </g>
    <g id="Group_10" data-name="Group 10" clip-path="url(#clip-path-3)">
      <g id="Group_9" data-name="Group 9" clip-path="url(#clip-path-2)">
        <path id="Path_10" data-name="Path 10" d="M5.833-40.833h20v11.667h-20Z" fill="#ec1b24"/>
      </g>
    </g>
    <g id="Group_12" data-name="Group 12" clip-path="url(#clip-path-5)">
      <g id="Group_11" data-name="Group 11" clip-path="url(#clip-path-2)">
        <path id="Path_13" data-name="Path 13" d="M5.833-27.5h32.5v11.667H5.833Z" fill="#ec1b24"/>
      </g>
    </g>
    <g id="Group_14" data-name="Group 14" clip-path="url(#clip-path-7)">
      <g id="Group_13" data-name="Group 13" clip-path="url(#clip-path-2)">
        <path id="Path_16" data-name="Path 16" d="M5.833-20.833h32.5V-9.167H5.833Z" fill="#ec1b24"/>
      </g>
    </g>
    <g id="Group_16" data-name="Group 16" clip-path="url(#clip-path-9)">
      <g id="Group_15" data-name="Group 15" clip-path="url(#clip-path-2)">
        <path id="Path_19" data-name="Path 19" d="M5.833-14.167h32.5V-2.5H5.833Z" fill="#ec1b24"/>
      </g>
    </g>
    <g id="Group_18" data-name="Group 18" clip-path="url(#clip-path-11)">
      <g id="Group_17" data-name="Group 17" clip-path="url(#clip-path-2)">
        <path id="Path_22" data-name="Path 22" d="M-5-55H45V5H-5Z" fill="#ec1b24"/>
      </g>
    </g>
  </g>
</svg>
