<svg id="Goole_Light" data-name="Goole+ Light" xmlns="http://www.w3.org/2000/svg" xmlns:xlink="http://www.w3.org/1999/xlink" width="40" height="40" viewBox="0 0 40 40">
  <defs>
    <clipPath id="clip-path">
      <path id="Clip_2" data-name="Clip 2" d="M0,0H13.661V13.886H0Z" transform="translate(0 0.032)" fill="none"/>
    </clipPath>
    <clipPath id="clip-path-2">
      <path id="Clip_5" data-name="Clip 5" d="M0,0H6.771V6.771H0Z" transform="translate(0.188 0.081)" fill="none"/>
    </clipPath>
  </defs>
  <g id="Goole_Light-2" data-name="Goole+ Light">
    <circle id="Oval_Copy" data-name="Oval Copy" cx="20" cy="20" r="20" fill="#ec1c24"/>
    <g id="Goole_Light-3" data-name="Goole+ Light" transform="translate(9 12.192)">
      <path id="Clip_2-2" data-name="Clip 2" d="M0,0H13.661V13.886H0Z" transform="translate(0 0.032)" fill="none"/>
      <g id="Goole_Light-4" data-name="Goole+ Light" clip-path="url(#clip-path)">
        <path id="Fill_1" data-name="Fill 1" d="M9.645,3.582l2-2.046A7.553,7.553,0,0,0,5.278.186,6.154,6.154,0,0,0,.105,5.533a7.613,7.613,0,0,0,1.608,6.2c1.135,1.227,2.521,2.156,5.464,2.156,3.08,0,6.686-2.542,6.476-8.279H6.882v2.7h3.859a3.538,3.538,0,0,1-3.269,2.721c-1.752.105-4.092-.464-4.556-3.269C2.572,5.677,3.393,3.276,5.924,2.9a4.657,4.657,0,0,1,3.72.686" transform="translate(0 0.032)" fill="#f7f7f5"/>
      </g>
    </g>
  </g>
  <g id="Group_7" data-name="Group 7" transform="translate(9 12)">
    <g id="Group_6" data-name="Group 6" transform="translate(15.041 3.335)">
      <path id="Clip_5-2" data-name="Clip 5" d="M0,0H6.771V6.771H0Z" transform="translate(0.188 0.081)" fill="none"/>
      <g id="Group_6-2" data-name="Group 6" clip-path="url(#clip-path-2)">
        <path id="Fill_4" data-name="Fill 4" d="M6.771,2.484H4.287V0h-1.8V2.484H0v1.8H2.484V6.771h1.8V4.287H6.771Z" transform="translate(0.188 0.081)" fill="#f7f7f5"/>
      </g>
    </g>
  </g>
</svg>
